<svg id="Layer_1" data-name="Layer 1" xmlns="http://www.w3.org/2000/svg" viewBox="0 0 1021 1096.11"><defs><style>.cls-1,.cls-4{fill:none;}.cls-1,.cls-2,.cls-3,.cls-4{stroke:red;stroke-miterlimit:10;}.cls-1,.cls-2{stroke-width:10px;}.cls-2,.cls-3{fill:red;}.cls-4{stroke-width:20px;}</style></defs><title>COA-MIN</title><line class="cls-1" x1="509" y1="1086" x2="509" y2="10"/><polygon class="cls-1" points="10 354 10 256 260 196 510 256 510 354 260 294 10 354"/><circle class="cls-2" cx="117.5" cy="117.5" r="60.5"/><circle class="cls-2" cx="402.5" cy="117.5" r="60.5"/><circle class="cls-2" cx="259.5" cy="402.5" r="60.5"/><polygon class="cls-1" points="802 135 717 135 717 217 635 217 635 302 717 302 717 385 802 385 802 302 885 302 885 217 802 217 802 135"/><line class="cls-1" x1="760" y1="10" x2="760" y2="135"/><line class="cls-1" x1="1010" y1="260" x2="885" y2="260"/><polygon class="cls-2" points="603.79 385 571.83 385 571.83 415.83 541 415.83 541 447.79 571.83 447.79 571.83 479 603.79 479 603.79 447.79 635 447.79 635 415.83 603.79 415.83 603.79 385"/><polygon class="cls-2" points="947.79 41 915.83 41 915.83 71.83 885 71.83 885 103.79 915.83 103.79 915.83 135 947.79 135 947.79 103.79 979 103.79 979 71.83 947.79 71.83 947.79 41"/><polygon class="cls-3" points="717 302 717 385 760 385 760 510 510 260 635 260 635 302 717 302"/><polygon class="cls-3" points="803.5 218.5 803.5 135.5 760.5 135.5 760.5 10.5 1010.5 260.5 885.5 260.5 885.5 218.5 803.5 218.5"/><line class="cls-1" x1="761" y1="10" x2="510.5" y2="260.5"/><line class="cls-1" x1="760" y1="510" x2="1010" y2="260"/><polygon class="cls-1" points="511 854 511 756 761 696 1011 756 1011 854 761 794 511 854"/><circle class="cls-2" cx="618.5" cy="617.5" r="60.5"/><circle class="cls-2" cx="903.5" cy="617.5" r="60.5"/><circle class="cls-2" cx="760.5" cy="902.5" r="60.5"/><line class="cls-1" x1="510" y1="10" x2="635" y2="135"/><line class="cls-1" x1="1011" y1="510" x2="885.5" y2="384.5"/><line class="cls-1" x1="636" y1="10" x2="573" y2="73"/><line class="cls-1" x1="885" y1="510" x2="948" y2="447"/><polygon class="cls-1" points="301 635 216 635 216 717 134 717 134 802 216 802 216 885 301 885 301 802 384 802 384 717 301 717 301 635"/><line class="cls-1" x1="259" y1="510" x2="259" y2="635"/><line class="cls-1" x1="509" y1="760" x2="384" y2="760"/><polygon class="cls-2" points="102.79 885 70.83 885 70.83 915.83 40 915.83 40 947.79 70.83 947.79 70.83 979 102.79 979 102.79 947.79 134 947.79 134 915.83 102.79 915.83 102.79 885"/><polygon class="cls-2" points="446.79 541 414.83 541 414.83 571.83 384 571.83 384 603.79 414.83 603.79 414.83 635 446.79 635 446.79 603.79 478 603.79 478 571.83 446.79 571.83 446.79 541"/><polygon class="cls-3" points="216 802 216 885 259 885 259 1010 9 760 134 760 134 802 216 802"/><polygon class="cls-3" points="302.5 718.5 302.5 635.5 259.5 635.5 259.5 510.5 509.5 760.5 384.5 760.5 384.5 718.5 302.5 718.5"/><line class="cls-1" x1="260" y1="510" x2="9.5" y2="760.5"/><line class="cls-1" x1="259" y1="1010" x2="509" y2="760"/><line class="cls-1" x1="9" y1="510" x2="134" y2="635"/><line class="cls-1" x1="510" y1="1010" x2="384.5" y2="884.5"/><line class="cls-1" x1="135" y1="510" x2="72" y2="573"/><line class="cls-1" x1="335" y1="1059" x2="447" y2="947"/><line class="cls-1" x1="1011" y1="510" x2="9" y2="510"/><polygon class="cls-4" points="1011 1010 509 1086 10 1010 10 10 1011 10 1011 1010"/><line class="cls-1" x1="259" y1="885" x2="259" y2="1048"/><line class="cls-1" x1="134" y1="760" x2="9" y2="760"/><line class="cls-1" x1="385" y1="760" x2="509" y2="760"/><line class="cls-1" x1="260" y1="635" x2="260" y2="510"/><line class="cls-1" x1="760" y1="510" x2="760" y2="385"/><line class="cls-1" x1="635" y1="260" x2="511" y2="260"/></svg>