<svg id="Layer_1" data-name="Layer 1" xmlns="http://www.w3.org/2000/svg" viewBox="0 0 800 800"><defs><style>.cls-1{fill:#121213;}</style></defs><path class="cls-1" d="M820,100H100V900H900V100ZM470,180V341.39l-1.79-1L325,257.68,187.18,337.25,180,341.39V180ZM180,387.58l7.18-4.15L325,303.87l143.21,82.68,1.79,1V470H180ZM180,820V530H470V820ZM820,691.39l-1.79-1L675,607.68,537.18,687.25,530,691.39V530H820ZM530,820V737.58l7.18-4.15L675,653.87l143.21,82.68,1.79,1V820ZM820,470H530V180H820Z" transform="translate(-100 -100)"/><polygon class="cls-1" points="555 305 595 305 595 245 655 245 655 205 595 205 595 145 555 145 555 205 495 205 495 245 555 245 555 305"/><polygon class="cls-1" points="245 495 205 495 205 555 145 555 145 595 205 595 205 655 245 655 245 595 305 595 305 555 245 555 245 495"/></svg>