<?xml version="1.0" encoding="utf-8"?>
<!-- Generator: Adobe Illustrator 25.0.1, SVG Export Plug-In . SVG Version: 6.00 Build 0)  -->
<svg version="1.1" id="Layer_1" xmlns="http://www.w3.org/2000/svg" xmlns:xlink="http://www.w3.org/1999/xlink" x="0px" y="0px"
	 viewBox="0 0 800 800" style="enable-background:new 0 0 800 800;" xml:space="preserve">
<style type="text/css">
	.st0{fill:#FFFFFF;}
</style>
<path class="st0" d="M720,0H0v800h800V0H720z M370,80v161.4l-1.8-1L225,157.7L87.2,237.2l-7.2,4.1V80H370z M80,287.6l7.2-4.1
	L225,203.9l143.2,82.7l1.8,1V370H80V287.6z M80,720V430h290v290H80z M720,591.4l-1.8-1L575,507.7l-137.8,79.6l-7.2,4.1V430h290
	V591.4z M430,720v-82.4l7.2-4.2L575,553.9l143.2,82.7l1.8,1V720H430z M720,370H430V80h290V370z"/>
<polygon class="st0" points="555,305 595,305 595,245 655,245 655,205 595,205 595,145 555,145 555,205 495,205 495,245 555,245 "/>
<polygon class="st0" points="245,495 205,495 205,555 145,555 145,595 205,595 205,655 245,655 245,595 305,595 305,555 245,555 "/>
</svg>
